<?xml version="1.0" encoding="utf-8"?>
<!-- Generator: Adobe Illustrator 16.0.0, SVG Export Plug-In . SVG Version: 6.00 Build 0)  -->
<!DOCTYPE svg PUBLIC "-//W3C//DTD SVG 1.1//EN" "http://www.w3.org/Graphics/SVG/1.1/DTD/svg11.dtd">
<svg version="1.1" id="Capa_1" xmlns="http://www.w3.org/2000/svg" xmlns:xlink="http://www.w3.org/1999/xlink" x="0px" y="0px"
	 width="26.965px" height="26.935px" viewBox="0 0 26.965 26.935" enable-background="new 0 0 26.965 26.935" xml:space="preserve">
<g>
	<g>
		<g>
			<g>
				
					<linearGradient id="SVGID_1_" gradientUnits="userSpaceOnUse" x1="-331.0684" y1="-117.3125" x2="-317.6533" y2="-94.077" gradientTransform="matrix(1 0 0 1 337.7798 119.1123)">
					<stop  offset="0" style="stop-color:#FFFFFF"/>
					<stop  offset="0.1306" style="stop-color:#FDFDFD"/>
					<stop  offset="0.1996" style="stop-color:#F5F5F5"/>
					<stop  offset="0.2543" style="stop-color:#E7E7E7"/>
					<stop  offset="0.3014" style="stop-color:#D4D4D4"/>
					<stop  offset="0.3436" style="stop-color:#BBBBBB"/>
					<stop  offset="0.3824" style="stop-color:#9D9D9D"/>
					<stop  offset="0.4185" style="stop-color:#787878"/>
					<stop  offset="0.4526" style="stop-color:#4E4E4E"/>
					<stop  offset="0.4838" style="stop-color:#1F1F1F"/>
					<stop  offset="0.5" style="stop-color:#040404"/>
					<stop  offset="0.5024" style="stop-color:#070707"/>
					<stop  offset="0.5415" style="stop-color:#3B3B3B"/>
					<stop  offset="0.583" style="stop-color:#696969"/>
					<stop  offset="0.6265" style="stop-color:#919191"/>
					<stop  offset="0.6722" style="stop-color:#B3B3B3"/>
					<stop  offset="0.7206" style="stop-color:#CFCFCF"/>
					<stop  offset="0.7728" style="stop-color:#E4E4E4"/>
					<stop  offset="0.8305" style="stop-color:#F3F3F3"/>
					<stop  offset="0.8982" style="stop-color:#FCFCFC"/>
					<stop  offset="1" style="stop-color:#FFFFFF"/>
				</linearGradient>
				<path fill="url(#SVGID_1_)" d="M13.417,26.834C6.02,26.834,0,20.815,0,13.417C0,6.017,6.02,0,13.417,0
					c7.403,0,13.418,6.017,13.418,13.417C26.835,20.815,20.82,26.834,13.417,26.834z M13.417,0.576
					c-7.077,0-12.841,5.762-12.841,12.842c0,7.077,5.764,12.834,12.841,12.834c7.083,0,12.841-5.758,12.841-12.834
					C26.259,6.337,20.5,0.576,13.417,0.576z"/>
			</g>
			<g opacity="0.7">
				<path opacity="0" d="M15.351,25.189c-5.421,0-9.838-4.417-9.838-9.839c0-5.429,4.417-9.844,9.838-9.844
					c5.427,0,9.844,4.415,9.844,9.844C25.195,20.772,20.778,25.189,15.351,25.189z"/>
				<path opacity="0.0625" d="M15.23,25.068c-5.421,0-9.838-4.417-9.838-9.839c0-5.429,4.417-9.844,9.838-9.844
					c5.427,0,9.844,4.415,9.844,9.844C25.074,20.651,20.657,25.068,15.23,25.068z"/>
				<path opacity="0.125" d="M15.109,24.947c-5.421,0-9.838-4.417-9.838-9.839c0-5.429,4.417-9.844,9.838-9.844
					c5.427,0,9.844,4.415,9.844,9.844C24.953,20.531,20.537,24.947,15.109,24.947z"/>
				<path opacity="0.1875" d="M14.989,24.827c-5.422,0-9.839-4.417-9.839-9.839c0-5.429,4.417-9.844,9.839-9.844
					c5.427,0,9.844,4.416,9.844,9.844C24.833,20.41,20.416,24.827,14.989,24.827z"/>
				<path opacity="0.25" d="M14.868,24.706c-5.421,0-9.838-4.416-9.838-9.839c0-5.429,4.417-9.844,9.838-9.844
					c5.427,0,9.844,4.415,9.844,9.844C24.711,20.29,20.295,24.706,14.868,24.706z"/>
				<path opacity="0.3125" d="M14.747,24.585c-5.421,0-9.838-4.417-9.838-9.839c0-5.429,4.417-9.844,9.838-9.844
					c5.427,0,9.844,4.416,9.844,9.844C24.591,20.168,20.174,24.585,14.747,24.585z"/>
				<path opacity="0.375" d="M14.626,24.464c-5.421,0-9.838-4.416-9.838-9.838c0-5.429,4.417-9.845,9.838-9.845
					c5.427,0,9.844,4.416,9.844,9.845C24.47,20.048,20.053,24.464,14.626,24.464z"/>
				<path opacity="0.4375" d="M14.505,24.343c-5.422,0-9.839-4.416-9.839-9.839c0-5.428,4.417-9.844,9.839-9.844
					c5.427,0,9.844,4.416,9.844,9.844C24.349,19.927,19.932,24.343,14.505,24.343z"/>
				<path opacity="0.5" d="M14.384,24.222c-5.422,0-9.839-4.416-9.839-9.838c0-5.428,4.417-9.845,9.839-9.845
					c5.427,0,9.844,4.417,9.844,9.845C24.229,19.807,19.811,24.222,14.384,24.222z"/>
				<path opacity="0.5625" d="M14.263,24.102c-5.421,0-9.838-4.416-9.838-9.838c0-5.428,4.417-9.845,9.838-9.845
					c5.427,0,9.845,4.417,9.845,9.845C24.108,19.686,19.69,24.102,14.263,24.102z"/>
				<path opacity="0.625" d="M14.143,23.981c-5.422,0-9.839-4.416-9.839-9.839c0-5.428,4.417-9.845,9.839-9.845
					c5.427,0,9.844,4.417,9.844,9.845C23.987,19.565,19.569,23.981,14.143,23.981z"/>
				<path opacity="0.6875" d="M14.022,23.86c-5.422,0-9.839-4.415-9.839-9.838c0-5.428,4.417-9.845,9.839-9.845
					c5.427,0,9.844,4.417,9.844,9.845C23.866,19.445,19.449,23.86,14.022,23.86z"/>
				<path opacity="0.75" d="M13.901,23.739c-5.422,0-9.839-4.416-9.839-9.838c0-5.428,4.417-9.846,9.839-9.846
					c5.427,0,9.845,4.418,9.845,9.846C23.746,19.324,19.328,23.739,13.901,23.739z"/>
				<path opacity="0.8125" d="M13.78,23.618c-5.421,0-9.838-4.415-9.838-9.838c0-5.428,4.417-9.845,9.838-9.845
					c5.427,0,9.845,4.417,9.845,9.845C23.625,19.203,19.207,23.618,13.78,23.618z"/>
				<path opacity="0.875" d="M13.659,23.498c-5.422,0-9.839-4.415-9.839-9.838c0-5.428,4.417-9.846,9.839-9.846
					c5.427,0,9.845,4.418,9.845,9.846C23.504,19.083,19.086,23.498,13.659,23.498z"/>
				<path opacity="0.9375" d="M13.539,23.376c-5.422,0-9.839-4.415-9.839-9.838c0-5.427,4.417-9.845,9.839-9.845
					c5.427,0,9.844,4.418,9.844,9.845C23.383,18.962,18.965,23.376,13.539,23.376z"/>
				<path d="M13.417,23.256c-5.422,0-9.839-4.415-9.839-9.838c0-5.427,4.417-9.846,9.839-9.846c5.427,0,9.845,4.418,9.845,9.846
					C23.262,18.841,18.844,23.256,13.417,23.256z"/>
			</g>
			<linearGradient id="SVGID_2_" gradientUnits="userSpaceOnUse" x1="3.2388" y1="13.4141" x2="23.6021" y2="13.4141">
				<stop  offset="0" style="stop-color:#0190C1"/>
				<stop  offset="1" style="stop-color:#2E56A6"/>
			</linearGradient>
			<path fill="none" stroke="url(#SVGID_2_)" stroke-width="0.6795" stroke-miterlimit="10" d="M13.417,23.256
				c-5.422,0-9.839-4.415-9.839-9.838c0-5.427,4.417-9.846,9.839-9.846c5.427,0,9.845,4.418,9.845,9.846
				C23.262,18.841,18.844,23.256,13.417,23.256z"/>
		</g>
		
			<linearGradient id="SVGID_3_" gradientUnits="userSpaceOnUse" x1="-328.8623" y1="-93.6821" x2="-328.8623" y2="-118.8242" gradientTransform="matrix(1 0 0 1 337.7798 119.1123)">
			<stop  offset="0.0788" style="stop-color:#000000"/>
			<stop  offset="0.1581" style="stop-color:#0B0B0B"/>
			<stop  offset="0.2967" style="stop-color:#282828"/>
			<stop  offset="0.4784" style="stop-color:#575757"/>
			<stop  offset="0.6962" style="stop-color:#989898"/>
			<stop  offset="0.9419" style="stop-color:#EAEAEA"/>
			<stop  offset="1" style="stop-color:#FFFFFF"/>
		</linearGradient>
		<path opacity="0.7" fill="url(#SVGID_3_)" d="M17.541,0.949c-1.298-0.426-2.681-0.661-4.124-0.661
			c-7.248,0-13.124,5.875-13.124,13.129c0,5.368,3.222,9.98,7.836,12.013L17.541,0.949z"/>
	</g>
	<g>
		<g>
			<path fill-rule="evenodd" clip-rule="evenodd" fill="#FFFFFF" d="M18.572,9.163H8.284l5.144,4.332L18.572,9.163z M15.159,12.448
				l3.44,4.1V9.534L15.159,12.448z M13.423,13.918l-1.506-1.238l-3.274,3.873h9.577l-3.279-3.91L13.423,13.918z M8.241,9.534v7.013
				l3.436-4.1L8.241,9.534z"/>
		</g>
	</g>
</g>
</svg>
