<?xml version="1.0" encoding="utf-8"?>
<!-- Generator: Adobe Illustrator 16.0.0, SVG Export Plug-In . SVG Version: 6.00 Build 0)  -->
<!DOCTYPE svg PUBLIC "-//W3C//DTD SVG 1.1//EN" "http://www.w3.org/Graphics/SVG/1.1/DTD/svg11.dtd">
<svg version="1.1" id="Capa_1" xmlns="http://www.w3.org/2000/svg" xmlns:xlink="http://www.w3.org/1999/xlink" x="0px" y="0px"
	 width="27.237px" height="27.238px" viewBox="0 0 27.237 27.238" enable-background="new 0 0 27.237 27.238" xml:space="preserve">
<g>
	<g>
		<g>
			<g>
				
					<linearGradient id="SVGID_1_" gradientUnits="userSpaceOnUse" x1="-330.9688" y1="-117.2852" x2="-317.3525" y2="-93.7012" gradientTransform="matrix(1 0 0 1 337.7798 119.1123)">
					<stop  offset="0" style="stop-color:#FFFFFF"/>
					<stop  offset="0.1306" style="stop-color:#FDFDFD"/>
					<stop  offset="0.1996" style="stop-color:#F5F5F5"/>
					<stop  offset="0.2543" style="stop-color:#E7E7E7"/>
					<stop  offset="0.3014" style="stop-color:#D4D4D4"/>
					<stop  offset="0.3436" style="stop-color:#BBBBBB"/>
					<stop  offset="0.3824" style="stop-color:#9D9D9D"/>
					<stop  offset="0.4185" style="stop-color:#787878"/>
					<stop  offset="0.4526" style="stop-color:#4E4E4E"/>
					<stop  offset="0.4838" style="stop-color:#1F1F1F"/>
					<stop  offset="0.5" style="stop-color:#040404"/>
					<stop  offset="0.5024" style="stop-color:#070707"/>
					<stop  offset="0.5415" style="stop-color:#3B3B3B"/>
					<stop  offset="0.583" style="stop-color:#696969"/>
					<stop  offset="0.6265" style="stop-color:#919191"/>
					<stop  offset="0.6722" style="stop-color:#B3B3B3"/>
					<stop  offset="0.7206" style="stop-color:#CFCFCF"/>
					<stop  offset="0.7728" style="stop-color:#E4E4E4"/>
					<stop  offset="0.8305" style="stop-color:#F3F3F3"/>
					<stop  offset="0.8982" style="stop-color:#FCFCFC"/>
					<stop  offset="1" style="stop-color:#FFFFFF"/>
				</linearGradient>
				<path fill="url(#SVGID_1_)" d="M13.619,27.238C6.11,27.238,0,21.128,0,13.617C0,6.111,6.11,0,13.619,0
					c7.508,0,13.619,6.111,13.619,13.617C27.238,21.128,21.127,27.238,13.619,27.238z M13.619,0.59
					c-7.184,0-13.023,5.844-13.023,13.027c0,7.186,5.839,13.031,13.023,13.031c7.188,0,13.033-5.846,13.033-13.031
					C26.652,6.434,20.808,0.59,13.619,0.59z"/>
			</g>
			<g opacity="0.7">
				<path opacity="0" d="M15.581,25.57c-5.502,0-9.986-4.481-9.986-9.989c0-5.509,4.484-9.989,9.986-9.989
					c5.509,0,9.992,4.48,9.992,9.989C25.573,21.089,21.09,25.57,15.581,25.57z"/>
				<path opacity="0.0625" d="M15.458,25.447c-5.502,0-9.985-4.48-9.985-9.989s4.483-9.989,9.985-9.989
					c5.509,0,9.992,4.48,9.992,9.989S20.967,25.447,15.458,25.447z"/>
				<path opacity="0.125" d="M15.336,25.325c-5.502,0-9.986-4.481-9.986-9.989c0-5.509,4.484-9.989,9.986-9.989
					c5.509,0,9.992,4.48,9.992,9.989C25.328,20.844,20.845,25.325,15.336,25.325z"/>
				<path opacity="0.1875" d="M15.213,25.202c-5.502,0-9.986-4.48-9.986-9.989c0-5.508,4.484-9.988,9.986-9.988
					c5.509,0,9.992,4.48,9.992,9.988C25.205,20.722,20.722,25.202,15.213,25.202z"/>
				<path opacity="0.25" d="M15.091,25.08c-5.503,0-9.986-4.481-9.986-9.99c0-5.508,4.483-9.988,9.986-9.988
					c5.509,0,9.992,4.48,9.992,9.988C25.083,20.599,20.6,25.08,15.091,25.08z"/>
				<path opacity="0.3125" d="M14.968,24.957c-5.502,0-9.986-4.48-9.986-9.989s4.484-9.989,9.986-9.989
					c5.509,0,9.992,4.48,9.992,9.989S20.477,24.957,14.968,24.957z"/>
				<path opacity="0.375" d="M14.846,24.835c-5.503,0-9.986-4.481-9.986-9.99c0-5.508,4.483-9.988,9.986-9.988
					c5.508,0,9.992,4.48,9.992,9.988C24.838,20.354,20.354,24.835,14.846,24.835z"/>
				<path opacity="0.4375" d="M14.723,24.712c-5.502,0-9.986-4.48-9.986-9.99c0-5.507,4.484-9.987,9.986-9.987
					c5.509,0,9.992,4.48,9.992,9.987C24.715,20.231,20.231,24.712,14.723,24.712z"/>
				<path opacity="0.5" d="M14.6,24.59c-5.502,0-9.986-4.48-9.986-9.99c0-5.508,4.484-9.988,9.986-9.988
					c5.509,0,9.992,4.48,9.992,9.988C24.592,20.109,20.108,24.59,14.6,24.59z"/>
				<path opacity="0.5625" d="M14.478,24.467c-5.503,0-9.986-4.48-9.986-9.99c0-5.508,4.483-9.988,9.986-9.988
					c5.508,0,9.992,4.48,9.992,9.988C24.47,19.986,19.985,24.467,14.478,24.467z"/>
				<path opacity="0.625" d="M14.354,24.344c-5.502,0-9.986-4.479-9.986-9.99c0-5.507,4.484-9.987,9.986-9.987
					c5.509,0,9.992,4.48,9.992,9.987C24.347,19.864,19.863,24.344,14.354,24.344z"/>
				<path opacity="0.6875" d="M14.232,24.222c-5.503,0-9.987-4.48-9.987-9.991c0-5.506,4.484-9.986,9.987-9.986
					c5.508,0,9.992,4.48,9.992,9.986C24.225,19.741,19.74,24.222,14.232,24.222z"/>
				<path opacity="0.75" d="M14.109,24.099c-5.502,0-9.986-4.479-9.986-9.99c0-5.507,4.484-9.987,9.986-9.987
					c5.508,0,9.992,4.48,9.992,9.987C24.102,19.619,19.617,24.099,14.109,24.099z"/>
				<path opacity="0.8125" d="M13.987,23.977C8.484,23.977,4,19.496,4,13.985c0-5.507,4.484-9.987,9.987-9.987
					c5.508,0,9.992,4.48,9.992,9.987C23.979,19.496,19.495,23.977,13.987,23.977z"/>
				<path opacity="0.875" d="M13.864,23.854c-5.503,0-9.986-4.479-9.986-9.991c0-5.506,4.483-9.986,9.986-9.986
					c5.508,0,9.992,4.48,9.992,9.986C23.856,19.374,19.372,23.854,13.864,23.854z"/>
				<path opacity="0.9375" d="M13.742,23.731c-5.503,0-9.987-4.48-9.987-9.991c0-5.506,4.484-9.986,9.987-9.986
					c5.508,0,9.992,4.48,9.992,9.986C23.734,19.251,19.25,23.731,13.742,23.731z"/>
				<path d="M13.619,23.608c-5.503,0-9.987-4.479-9.987-9.991c0-5.506,4.484-9.986,9.987-9.986c5.508,0,9.992,4.48,9.992,9.986
					C23.611,19.129,19.127,23.608,13.619,23.608z"/>
			</g>
			<linearGradient id="SVGID_2_" gradientUnits="userSpaceOnUse" x1="3.2876" y1="13.6196" x2="23.9561" y2="13.6196">
				<stop  offset="0" style="stop-color:#0190C1"/>
				<stop  offset="1" style="stop-color:#2E56A6"/>
			</linearGradient>
			<path fill="none" stroke="url(#SVGID_2_)" stroke-width="0.6897" stroke-miterlimit="10" d="M13.619,23.608
				c-5.503,0-9.987-4.479-9.987-9.991c0-5.506,4.484-9.986,9.987-9.986c5.508,0,9.992,4.48,9.992,9.986
				C23.611,19.129,19.127,23.608,13.619,23.608z"/>
		</g>
		
			<linearGradient id="SVGID_3_" gradientUnits="userSpaceOnUse" x1="-328.7285" y1="-93.2979" x2="-328.7285" y2="-118.8174" gradientTransform="matrix(1 0 0 1 337.7798 119.1123)">
			<stop  offset="0.0788" style="stop-color:#000000"/>
			<stop  offset="0.1581" style="stop-color:#0B0B0B"/>
			<stop  offset="0.2967" style="stop-color:#282828"/>
			<stop  offset="0.4784" style="stop-color:#575757"/>
			<stop  offset="0.6962" style="stop-color:#989898"/>
			<stop  offset="0.9419" style="stop-color:#EAEAEA"/>
			<stop  offset="1" style="stop-color:#FFFFFF"/>
		</linearGradient>
		<path opacity="0.7" fill="url(#SVGID_3_)" d="M17.805,0.968c-1.318-0.435-2.723-0.673-4.186-0.673
			c-7.357,0-13.321,5.965-13.321,13.322c0,5.45,3.27,10.134,7.953,12.197L17.805,0.968z"/>
	</g>
	<g>
		<path fill="none" stroke="#E5E6E8" stroke-width="0.3483" stroke-miterlimit="10" d="M20.189,17.509
			c0,1.489-1.203,2.696-2.688,2.696H9.77c-1.491,0-2.7-1.207-2.7-2.696v-7.73c0-1.487,1.209-2.694,2.7-2.694h7.731
			c1.485,0,2.688,1.207,2.688,2.694V17.509z"/>
		<path fill="#FFFFFF" d="M16.119,10.689h1.208v-1.9h-1.508l0,0h-0.309c0,0-1.138-0.029-1.87,0.916c0,0-0.493,0.467-0.499,1.832l0,0
			v1.43h-1.794v2.018h1.794v5.221h2.065v-5.221h1.778l0.25-2.018h-2.028v-1.43l0,0C15.213,11.379,15.283,10.677,16.119,10.689z"/>
	</g>
</g>
</svg>
