<?xml version="1.0" encoding="utf-8"?>
<!-- Generator: Adobe Illustrator 16.0.0, SVG Export Plug-In . SVG Version: 6.00 Build 0)  -->
<!DOCTYPE svg PUBLIC "-//W3C//DTD SVG 1.1//EN" "http://www.w3.org/Graphics/SVG/1.1/DTD/svg11.dtd">
<svg version="1.1" id="Capa_1" xmlns="http://www.w3.org/2000/svg" xmlns:xlink="http://www.w3.org/1999/xlink" x="0px" y="0px"
	 width="26.449px" height="26.448px" viewBox="0 0 26.449 26.448" enable-background="new 0 0 26.449 26.448" xml:space="preserve">
<g>
	<g>
		<g>
			<g>
				<g>
					
						<linearGradient id="SVGID_1_" gradientUnits="userSpaceOnUse" x1="-331.1665" y1="-117.3379" x2="-317.9448" y2="-94.4373" gradientTransform="matrix(1 0 0 1 337.7798 119.1123)">
						<stop  offset="0" style="stop-color:#FFFFFF"/>
						<stop  offset="0.1306" style="stop-color:#FDFDFD"/>
						<stop  offset="0.1996" style="stop-color:#F5F5F5"/>
						<stop  offset="0.2543" style="stop-color:#E7E7E7"/>
						<stop  offset="0.3014" style="stop-color:#D4D4D4"/>
						<stop  offset="0.3436" style="stop-color:#BBBBBB"/>
						<stop  offset="0.3824" style="stop-color:#9D9D9D"/>
						<stop  offset="0.4185" style="stop-color:#787878"/>
						<stop  offset="0.4526" style="stop-color:#4E4E4E"/>
						<stop  offset="0.4838" style="stop-color:#1F1F1F"/>
						<stop  offset="0.5" style="stop-color:#040404"/>
						<stop  offset="0.5024" style="stop-color:#070707"/>
						<stop  offset="0.5415" style="stop-color:#3B3B3B"/>
						<stop  offset="0.583" style="stop-color:#696969"/>
						<stop  offset="0.6265" style="stop-color:#919191"/>
						<stop  offset="0.6722" style="stop-color:#B3B3B3"/>
						<stop  offset="0.7206" style="stop-color:#CFCFCF"/>
						<stop  offset="0.7728" style="stop-color:#E4E4E4"/>
						<stop  offset="0.8305" style="stop-color:#F3F3F3"/>
						<stop  offset="0.8982" style="stop-color:#FCFCFC"/>
						<stop  offset="1" style="stop-color:#FFFFFF"/>
					</linearGradient>
					<path fill="url(#SVGID_1_)" d="M13.224,26.448C5.932,26.448,0,20.517,0,13.226C0,5.934,5.932,0,13.224,0
						c7.291,0,13.225,5.934,13.225,13.226C26.449,20.517,20.515,26.448,13.224,26.448z M13.224,0.573
						c-6.976,0-12.658,5.676-12.658,12.652s5.682,12.652,12.658,12.652c6.975,0,12.656-5.676,12.656-12.652
						S20.199,0.573,13.224,0.573z"/>
				</g>
				<g opacity="0.7">
					<path opacity="0" d="M15.125,24.829c-5.344,0-9.698-4.352-9.698-9.697c0-5.35,4.354-9.703,9.698-9.703
						c5.348,0,9.702,4.354,9.702,9.703C24.827,20.478,20.473,24.829,15.125,24.829z"/>
					<path opacity="0.0625" d="M15.006,24.71c-5.344,0-9.699-4.352-9.699-9.697c0-5.35,4.354-9.703,9.699-9.703
						c5.348,0,9.702,4.354,9.702,9.703C24.708,20.358,20.354,24.71,15.006,24.71z"/>
					<path opacity="0.125" d="M14.887,24.591c-5.344,0-9.699-4.352-9.699-9.697c0-5.35,4.354-9.703,9.699-9.703
						c5.348,0,9.702,4.354,9.702,9.703C24.589,20.239,20.235,24.591,14.887,24.591z"/>
					<path opacity="0.1875" d="M14.769,24.472c-5.345,0-9.699-4.352-9.699-9.697c0-5.35,4.354-9.702,9.699-9.702
						c5.348,0,9.702,4.353,9.702,9.702C24.471,20.12,20.117,24.472,14.769,24.472z"/>
					<path opacity="0.25" d="M14.65,24.353c-5.345,0-9.7-4.352-9.7-9.697c0-5.35,4.354-9.702,9.7-9.702
						c5.348,0,9.702,4.353,9.702,9.702C24.352,20.001,19.998,24.353,14.65,24.353z"/>
					<path opacity="0.3125" d="M14.531,24.234c-5.345,0-9.7-4.352-9.7-9.698c0-5.35,4.354-9.702,9.7-9.702
						c5.348,0,9.702,4.353,9.702,9.702C24.233,19.883,19.879,24.234,14.531,24.234z"/>
					<path opacity="0.375" d="M14.412,24.115c-5.346,0-9.7-4.352-9.7-9.698c0-5.35,4.354-9.702,9.7-9.702
						c5.348,0,9.702,4.353,9.702,9.702C24.114,19.764,19.76,24.115,14.412,24.115z"/>
					<path opacity="0.4375" d="M14.293,23.996c-5.346,0-9.701-4.352-9.701-9.698c0-5.35,4.354-9.702,9.701-9.702
						c5.348,0,9.702,4.353,9.702,9.702C23.996,19.645,19.642,23.996,14.293,23.996z"/>
					<path opacity="0.5" d="M14.174,23.877c-5.347,0-9.7-4.352-9.7-9.698c0-5.35,4.354-9.701,9.7-9.701
						c5.349,0,9.703,4.352,9.703,9.701C23.877,19.525,19.523,23.877,14.174,23.877z"/>
					<path opacity="0.5625" d="M14.056,23.758c-5.347,0-9.701-4.352-9.701-9.698c0-5.351,4.354-9.701,9.701-9.701
						c5.348,0,9.703,4.351,9.703,9.701C23.758,19.406,19.404,23.758,14.056,23.758z"/>
					<path opacity="0.625" d="M13.937,23.639c-5.348,0-9.701-4.352-9.701-9.698c0-5.351,4.354-9.701,9.701-9.701
						c5.348,0,9.703,4.351,9.703,9.701C23.64,19.287,19.285,23.639,13.937,23.639z"/>
					<path opacity="0.6875" d="M13.818,23.52c-5.348,0-9.702-4.352-9.702-9.698c0-5.351,4.354-9.701,9.702-9.701
						s9.703,4.351,9.703,9.701C23.521,19.168,19.167,23.52,13.818,23.52z"/>
					<path opacity="0.75" d="M13.699,23.401c-5.348,0-9.702-4.352-9.702-9.699c0-5.351,4.354-9.701,9.702-9.701
						s9.703,4.351,9.703,9.701C23.402,19.05,19.047,23.401,13.699,23.401z"/>
					<path opacity="0.8125" d="M13.581,23.282c-5.349,0-9.702-4.352-9.702-9.699c0-5.351,4.354-9.701,9.702-9.701
						c5.348,0,9.703,4.351,9.703,9.701C23.283,18.931,18.929,23.282,13.581,23.282z"/>
					<path opacity="0.875" d="M13.462,23.163c-5.349,0-9.703-4.352-9.703-9.699c0-5.351,4.354-9.7,9.703-9.7
						c5.348,0,9.703,4.35,9.703,9.7C23.165,18.812,18.81,23.163,13.462,23.163z"/>
					<path opacity="0.9375" d="M13.343,23.044c-5.349,0-9.703-4.352-9.703-9.699c0-5.351,4.354-9.7,9.703-9.7
						c5.348,0,9.703,4.35,9.703,9.7C23.046,18.692,18.691,23.044,13.343,23.044z"/>
					<path d="M13.224,22.925c-5.35,0-9.703-4.352-9.703-9.699c0-5.351,4.354-9.7,9.703-9.7c5.348,0,9.703,4.35,9.703,9.7
						C22.927,18.573,18.572,22.925,13.224,22.925z"/>
				</g>
				<linearGradient id="SVGID_2_" gradientUnits="userSpaceOnUse" x1="3.186" y1="13.2251" x2="23.2622" y2="13.2251">
					<stop  offset="0" style="stop-color:#0190C1"/>
					<stop  offset="1" style="stop-color:#2E56A6"/>
				</linearGradient>
				<path fill="none" stroke="url(#SVGID_2_)" stroke-width="0.6698" stroke-miterlimit="10" d="M13.224,22.925
					c-5.35,0-9.703-4.352-9.703-9.699c0-5.351,4.354-9.7,9.703-9.7c5.348,0,9.703,4.35,9.703,9.7
					C22.927,18.573,18.572,22.925,13.224,22.925z"/>
			</g>
			
				<linearGradient id="SVGID_3_" gradientUnits="userSpaceOnUse" x1="-328.9917" y1="-94.0449" x2="-328.9917" y2="-118.8271" gradientTransform="matrix(1 0 0 1 337.7798 119.1123)">
				<stop  offset="0.0788" style="stop-color:#000000"/>
				<stop  offset="0.1581" style="stop-color:#0B0B0B"/>
				<stop  offset="0.2967" style="stop-color:#282828"/>
				<stop  offset="0.4784" style="stop-color:#575757"/>
				<stop  offset="0.6962" style="stop-color:#989898"/>
				<stop  offset="0.9419" style="stop-color:#EAEAEA"/>
				<stop  offset="1" style="stop-color:#FFFFFF"/>
			</linearGradient>
			<path opacity="0.7" fill="url(#SVGID_3_)" d="M17.288,0.938c-1.284-0.422-2.652-0.653-4.063-0.653
				c-7.144,0-12.936,5.793-12.936,12.94c0,5.289,3.175,9.838,7.723,11.842L17.288,0.938z"/>
		</g>
	</g>
	<g>
		<path fill="#FFFFFF" d="M17.135,8.336H9.313c-0.537,0-0.98,0.44-0.98,0.979v7.819c0,0.539,0.443,0.977,0.98,0.977h7.822
			c0.538,0,0.98-0.438,0.98-0.977V9.315C18.116,8.776,17.673,8.336,17.135,8.336L17.135,8.336z M13.224,11.269
			c1.079,0,1.953,0.881,1.953,1.958s-0.874,1.952-1.953,1.952s-1.954-0.875-1.954-1.952S12.145,11.269,13.224,11.269L13.224,11.269z
			 M9.555,17.135c-0.143,0-0.242-0.099-0.242-0.243v-4.155h1.031c-0.053,0.146-0.053,0.345-0.053,0.49c0,1.61,1.316,2.93,2.933,2.93
			c1.612,0,2.932-1.319,2.932-2.93c0-0.146,0-0.345-0.051-0.49h1.031v4.155c0,0.145-0.104,0.243-0.241,0.243H9.555z M17.135,10.537
			c0,0.144-0.104,0.243-0.241,0.243h-0.979c-0.146,0-0.248-0.1-0.248-0.243V9.558c0-0.146,0.102-0.242,0.248-0.242h0.979
			c0.136,0,0.241,0.096,0.241,0.242V10.537z M17.135,10.537"/>
	</g>
</g>
</svg>
