<?xml version="1.0" encoding="utf-8"?>
<!-- Generator: Adobe Illustrator 16.0.0, SVG Export Plug-In . SVG Version: 6.00 Build 0)  -->
<!DOCTYPE svg PUBLIC "-//W3C//DTD SVG 1.1//EN" "http://www.w3.org/Graphics/SVG/1.1/DTD/svg11.dtd">
<svg version="1.1" id="Capa_1" xmlns="http://www.w3.org/2000/svg" xmlns:xlink="http://www.w3.org/1999/xlink" x="0px" y="0px"
	 width="26.903px" height="26.9px" viewBox="0 0 26.903 26.9" enable-background="new 0 0 26.903 26.9" xml:space="preserve">
<g>
	<g>
		<g>
			<g>
				
					<linearGradient id="SVGID_1_" gradientUnits="userSpaceOnUse" x1="-331.0518" y1="-117.3076" x2="-317.604" y2="-94.0154" gradientTransform="matrix(1 0 0 1 337.7798 119.1123)">
					<stop  offset="0" style="stop-color:#FFFFFF"/>
					<stop  offset="0.1306" style="stop-color:#FDFDFD"/>
					<stop  offset="0.1996" style="stop-color:#F5F5F5"/>
					<stop  offset="0.2543" style="stop-color:#E7E7E7"/>
					<stop  offset="0.3014" style="stop-color:#D4D4D4"/>
					<stop  offset="0.3436" style="stop-color:#BBBBBB"/>
					<stop  offset="0.3824" style="stop-color:#9D9D9D"/>
					<stop  offset="0.4185" style="stop-color:#787878"/>
					<stop  offset="0.4526" style="stop-color:#4E4E4E"/>
					<stop  offset="0.4838" style="stop-color:#1F1F1F"/>
					<stop  offset="0.5" style="stop-color:#040404"/>
					<stop  offset="0.5024" style="stop-color:#070707"/>
					<stop  offset="0.5415" style="stop-color:#3B3B3B"/>
					<stop  offset="0.583" style="stop-color:#696969"/>
					<stop  offset="0.6265" style="stop-color:#919191"/>
					<stop  offset="0.6722" style="stop-color:#B3B3B3"/>
					<stop  offset="0.7206" style="stop-color:#CFCFCF"/>
					<stop  offset="0.7728" style="stop-color:#E4E4E4"/>
					<stop  offset="0.8305" style="stop-color:#F3F3F3"/>
					<stop  offset="0.8982" style="stop-color:#FCFCFC"/>
					<stop  offset="1" style="stop-color:#FFFFFF"/>
				</linearGradient>
				<path fill="url(#SVGID_1_)" d="M13.452,26.9C6.035,26.9,0,20.868,0,13.449C0,6.035,6.035,0,13.452,0s13.452,6.035,13.452,13.449
					C26.903,20.868,20.868,26.9,13.452,26.9z M13.452,0.581c-7.101,0-12.874,5.774-12.874,12.868c0,7.098,5.773,12.87,12.874,12.87
					c7.095,0,12.873-5.772,12.873-12.87C26.324,6.355,20.547,0.581,13.452,0.581z"/>
			</g>
			<g opacity="0.7">
				<path opacity="0" d="M15.385,25.254c-5.436,0-9.864-4.428-9.864-9.867c0-5.438,4.429-9.865,9.864-9.865
					c5.44,0,9.869,4.428,9.869,9.865C25.254,20.826,20.825,25.254,15.385,25.254z"/>
				<path opacity="0.0625" d="M15.264,25.133c-5.436,0-9.865-4.428-9.865-9.867c0-5.438,4.429-9.865,9.865-9.865
					c5.44,0,9.869,4.428,9.869,9.865C25.133,20.705,20.705,25.133,15.264,25.133z"/>
				<path opacity="0.125" d="M15.143,25.012c-5.436,0-9.865-4.428-9.865-9.867c0-5.438,4.429-9.865,9.865-9.865
					c5.44,0,9.869,4.428,9.869,9.865C25.012,20.584,20.583,25.012,15.143,25.012z"/>
				<path opacity="0.1875" d="M15.022,24.891c-5.437,0-9.865-4.427-9.865-9.867c0-5.438,4.429-9.866,9.865-9.866
					c5.44,0,9.869,4.428,9.869,9.866C24.892,20.464,20.463,24.891,15.022,24.891z"/>
				<path opacity="0.25" d="M14.901,24.77c-5.437,0-9.865-4.427-9.865-9.867c0-5.438,4.429-9.866,9.865-9.866
					c5.44,0,9.869,4.428,9.869,9.866C24.771,20.343,20.342,24.77,14.901,24.77z"/>
				<path opacity="0.3125" d="M14.781,24.648c-5.438,0-9.866-4.427-9.866-9.867c0-5.438,4.428-9.866,9.866-9.866
					c5.44,0,9.869,4.428,9.869,9.866C24.65,20.222,20.221,24.648,14.781,24.648z"/>
				<path opacity="0.375" d="M14.66,24.527c-5.438,0-9.866-4.426-9.866-9.867c0-5.438,4.428-9.866,9.866-9.866
					c5.44,0,9.869,4.429,9.869,9.866C24.529,20.102,20.1,24.527,14.66,24.527z"/>
				<path opacity="0.4375" d="M14.539,24.406c-5.438,0-9.866-4.426-9.866-9.867c0-5.438,4.428-9.866,9.866-9.866
					c5.44,0,9.869,4.429,9.869,9.866C24.408,19.98,19.979,24.406,14.539,24.406z"/>
				<path opacity="0.5" d="M14.418,24.285c-5.438,0-9.866-4.426-9.866-9.867c0-5.438,4.428-9.866,9.866-9.866
					c5.44,0,9.869,4.429,9.869,9.866C24.287,19.859,19.858,24.285,14.418,24.285z"/>
				<path opacity="0.5625" d="M14.297,24.163c-5.438,0-9.867-4.425-9.867-9.866c0-5.438,4.429-9.866,9.867-9.866
					c5.44,0,9.869,4.429,9.869,9.866C24.167,19.738,19.738,24.163,14.297,24.163z"/>
				<path opacity="0.625" d="M14.177,24.042c-5.439,0-9.868-4.425-9.868-9.866c0-5.438,4.429-9.866,9.868-9.866
					c5.44,0,9.869,4.429,9.869,9.866C24.046,19.617,19.617,24.042,14.177,24.042z"/>
				<path opacity="0.6875" d="M14.056,23.921c-5.439,0-9.868-4.424-9.868-9.866c0-5.438,4.429-9.867,9.868-9.867
					c5.44,0,9.869,4.429,9.869,9.867C23.925,19.497,19.496,23.921,14.056,23.921z"/>
				<path opacity="0.75" d="M13.935,23.8c-5.44,0-9.868-4.424-9.868-9.866c0-5.438,4.428-9.867,9.868-9.867
					c5.44,0,9.869,4.429,9.869,9.867C23.804,19.376,19.375,23.8,13.935,23.8z"/>
				<path opacity="0.8125" d="M13.814,23.679c-5.44,0-9.868-4.424-9.868-9.866c0-5.438,4.428-9.867,9.868-9.867
					c5.44,0,9.869,4.429,9.869,9.867C23.683,19.255,19.254,23.679,13.814,23.679z"/>
				<path opacity="0.875" d="M13.693,23.558c-5.44,0-9.869-4.423-9.869-9.866c0-5.438,4.428-9.867,9.869-9.867
					s9.869,4.43,9.869,9.867C23.563,19.135,19.134,23.558,13.693,23.558z"/>
				<path opacity="0.9375" d="M13.572,23.437c-5.44,0-9.869-4.423-9.869-9.866c0-5.438,4.428-9.867,9.869-9.867
					s9.869,4.43,9.869,9.867C23.441,19.014,19.013,23.437,13.572,23.437z"/>
				<path d="M13.452,23.315c-5.441,0-9.869-4.423-9.869-9.866c0-5.438,4.428-9.867,9.869-9.867c5.44,0,9.869,4.43,9.869,9.867
					C23.321,18.893,18.892,23.315,13.452,23.315z"/>
			</g>
			<linearGradient id="SVGID_2_" gradientUnits="userSpaceOnUse" x1="3.2417" y1="13.4487" x2="23.6616" y2="13.4487">
				<stop  offset="0" style="stop-color:#0190C1"/>
				<stop  offset="1" style="stop-color:#2E56A6"/>
			</linearGradient>
			<path fill="none" stroke="url(#SVGID_2_)" stroke-width="0.6813" stroke-miterlimit="10" d="M13.452,23.315
				c-5.441,0-9.869-4.423-9.869-9.866c0-5.438,4.428-9.867,9.869-9.867c5.44,0,9.869,4.43,9.869,9.867
				C23.321,18.893,18.892,23.315,13.452,23.315z"/>
		</g>
		
			<linearGradient id="SVGID_3_" gradientUnits="userSpaceOnUse" x1="-328.8398" y1="-93.6152" x2="-328.8398" y2="-118.8232" gradientTransform="matrix(1 0 0 1 337.7798 119.1123)">
			<stop  offset="0.0788" style="stop-color:#000000"/>
			<stop  offset="0.1581" style="stop-color:#0B0B0B"/>
			<stop  offset="0.2967" style="stop-color:#282828"/>
			<stop  offset="0.4784" style="stop-color:#575757"/>
			<stop  offset="0.6962" style="stop-color:#989898"/>
			<stop  offset="0.9419" style="stop-color:#EAEAEA"/>
			<stop  offset="1" style="stop-color:#FFFFFF"/>
		</linearGradient>
		<path opacity="0.7" fill="url(#SVGID_3_)" d="M17.585,0.955c-1.307-0.431-2.699-0.666-4.134-0.666
			c-7.267,0-13.157,5.891-13.157,13.16c0,5.381,3.229,10.008,7.856,12.048L17.585,0.955z"/>
	</g>
	<g>
		<path fill="#FFFFFF" d="M9.928,10.539c0.048-0.129,0.102-0.236,0.161-0.33c0.021-0.474,0.375-0.854,0.809-0.854h5.114
			c0.45,0,0.809,0.396,0.809,0.883v0.027c0.016,0.026,0.027,0.059,0.042,0.086c0.064,0.16,0.15,0.197,0.311,0.197
			c0.969-0.006,1.933-0.002,2.902-0.002c0.075,0,0.15-0.014,0.225-0.02c0.01-0.889-0.284-1.585-1.055-2.064
			c-0.825-0.517-1.74-0.709-2.683-0.72c-2.142-0.035-4.294-0.035-6.437-0.005c-0.927,0.016-1.81,0.273-2.613,0.779
			c-0.75,0.471-0.953,1.175-0.916,2.021C7.722,10.539,8.824,10.539,9.928,10.539z"/>
		<path fill="#FFFFFF" d="M20.274,10.726c-1.098,0-2.196,0-3.304,0c-0.091,0.763-0.027,0.825,0.701,0.825c0.653,0,1.312,0,1.971,0
			C20.226,11.545,20.397,11.32,20.274,10.726z"/>
		<path fill="#FFFFFF" d="M9.922,10.734c-1.103,0-2.206,0-3.309,0c-0.081,0.674,0.038,0.816,0.68,0.816c0.637,0,1.269,0,1.912,0
			C9.767,11.545,9.96,11.33,9.922,10.734z"/>
		<path fill="#FFFFFF" d="M16.22,10.779l0.118-1.296h-0.792l-0.268,1.296h-1.365h-0.926h-1.36l-0.273-1.296h-0.787l0.113,1.296
			l-0.777,0.969l-1.376,3.904v2.156h0.332v0.114c0,0.081,0.07,0.145,0.15,0.145h0.819c0.08,0,0.15-0.063,0.15-0.145v-0.114h6.951
			v0.114c0,0.081,0.07,0.145,0.15,0.145h0.814c0.086,0,0.155-0.063,0.155-0.145v-0.114h0.332v-2.156l-1.376-3.904L16.22,10.779z
			 M13.452,16.434c-1.243,0-2.254-1.012-2.254-2.248c0-1.246,1.012-2.252,2.254-2.252c1.242,0,2.244,1.006,2.244,2.252
			C15.695,15.422,14.694,16.434,13.452,16.434z"/>
		<path fill="#FFFFFF" d="M13.452,12.638c0.171,0,0.316-0.14,0.316-0.311c0-0.177-0.145-0.313-0.316-0.313
			c-0.177,0-0.316,0.137-0.316,0.313C13.136,12.498,13.275,12.638,13.452,12.638z"/>
		<path fill="#FFFFFF" d="M13.452,15.732c-0.177,0-0.316,0.137-0.316,0.306c0,0.177,0.139,0.315,0.316,0.315
			c0.171,0,0.316-0.139,0.316-0.315C13.768,15.869,13.623,15.732,13.452,15.732z"/>
		<path fill="#FFFFFF" d="M14.994,14.186c0,0.168,0.145,0.311,0.316,0.311c0.166,0,0.305-0.143,0.305-0.311
			c0-0.178-0.139-0.311-0.305-0.311C15.138,13.875,14.994,14.008,14.994,14.186z"/>
		<path fill="#FFFFFF" d="M11.909,14.186c0-0.178-0.145-0.311-0.316-0.311c-0.177,0-0.311,0.133-0.311,0.311
			c0,0.168,0.134,0.311,0.311,0.311C11.765,14.496,11.909,14.354,11.909,14.186z"/>
		<path fill="#FFFFFF" d="M14.539,12.648c-0.118,0.123-0.118,0.318,0,0.441c0.128,0.121,0.321,0.121,0.444,0
			c0.118-0.123,0.118-0.318,0-0.441C14.86,12.525,14.667,12.525,14.539,12.648z"/>
		<path fill="#FFFFFF" d="M12.359,15.277c-0.123-0.121-0.327-0.121-0.444,0c-0.123,0.121-0.123,0.316,0,0.439
			c0.118,0.123,0.321,0.123,0.444,0C12.477,15.594,12.477,15.398,12.359,15.277z"/>
		<path fill="#FFFFFF" d="M14.539,15.277c-0.118,0.121-0.118,0.316,0,0.439c0.128,0.123,0.321,0.123,0.444,0
			c0.118-0.123,0.118-0.318,0-0.439C14.86,15.156,14.667,15.156,14.539,15.277z"/>
		<path fill="#FFFFFF" d="M12.359,13.09c0.118-0.123,0.118-0.318,0-0.441c-0.123-0.123-0.327-0.123-0.444,0
			c-0.123,0.123-0.123,0.318,0,0.441C12.032,13.211,12.236,13.211,12.359,13.09z"/>
		<path fill="#FFFFFF" d="M14.871,13.572c0.064,0.16,0.251,0.23,0.412,0.163c0.156-0.067,0.231-0.251,0.161-0.407
			c-0.064-0.16-0.246-0.235-0.407-0.166C14.876,13.232,14.801,13.414,14.871,13.572z"/>
		<path fill="#FFFFFF" d="M12.032,14.793c-0.069-0.158-0.252-0.232-0.412-0.164c-0.161,0.07-0.236,0.252-0.161,0.41
			c0.064,0.158,0.246,0.232,0.407,0.164C12.027,15.133,12.102,14.951,12.032,14.793z"/>
		<path fill="#FFFFFF" d="M14.062,15.604c-0.156,0.066-0.23,0.251-0.161,0.407c0.064,0.16,0.246,0.235,0.407,0.166
			c0.161-0.07,0.23-0.252,0.161-0.407C14.399,15.609,14.223,15.537,14.062,15.604z"/>
		<path fill="#FFFFFF" d="M12.841,12.764c0.155-0.066,0.23-0.252,0.16-0.41c-0.064-0.16-0.246-0.232-0.407-0.166
			c-0.161,0.07-0.236,0.252-0.166,0.412C12.503,12.755,12.68,12.83,12.841,12.764z"/>
		<path fill="#FFFFFF" d="M11.614,13.762c0.161,0.067,0.338-0.01,0.407-0.171c0.064-0.155-0.016-0.341-0.166-0.401
			c-0.161-0.07-0.343,0.005-0.413,0.166C11.379,13.516,11.454,13.695,11.614,13.762z"/>
		<path fill="#FFFFFF" d="M15.288,14.605c-0.161-0.066-0.348,0.008-0.407,0.168c-0.064,0.158,0.005,0.344,0.166,0.408
			s0.343-0.012,0.412-0.172C15.524,14.852,15.443,14.667,15.288,14.605z"/>
		<path fill="#FFFFFF" d="M14.041,12.752c0.161,0.068,0.343-0.008,0.407-0.168c0.064-0.16-0.005-0.343-0.166-0.407
			c-0.16-0.063-0.342,0.011-0.407,0.169C13.805,12.504,13.885,12.691,14.041,12.752z"/>
		<path fill="#FFFFFF" d="M12.862,15.609c-0.161-0.062-0.343,0.011-0.407,0.172c-0.07,0.16,0.005,0.342,0.166,0.406
			c0.161,0.07,0.343-0.008,0.407-0.168C13.098,15.858,13.018,15.68,12.862,15.609z"/>
		<path fill="#FFFFFF" d="M13.462,13.045c-0.626,0-1.135,0.508-1.135,1.135c0,0.632,0.508,1.141,1.135,1.141
			c0.632,0,1.141-0.509,1.141-1.141C14.603,13.553,14.094,13.045,13.462,13.045z"/>
	</g>
</g>
</svg>
